<?xml version="1.0" standalone="no"?>
<!DOCTYPE svg PUBLIC "-//W3C//DTD SVG 20010904//EN"
 "http://www.w3.org/TR/2001/REC-SVG-20010904/DTD/svg10.dtd">
<svg version="1.0" xmlns="http://www.w3.org/2000/svg"
 width="1024.000000pt" height="1024.000000pt" viewBox="0 0 1024.000000 1024.000000"
 preserveAspectRatio="xMidYMid meet">

<g transform="translate(0.000000,1024.000000) scale(0.100000,-0.100000)"
fill="#000000" stroke="none">
<path d="M0 5120 l0 -5120 1239 0 1239 0 49 57 c27 32 102 128 166 213 64 85
127 169 140 185 13 17 47 64 76 105 28 41 89 125 136 185 47 61 110 147 140
193 30 45 59 82 65 82 5 0 10 6 10 14 0 7 10 24 23 37 13 13 27 32 30 42 4 10
11 15 17 12 5 -3 10 1 10 9 0 9 5 16 10 16 6 0 10 5 10 11 0 6 6 17 13 24 6 7
41 53 77 102 36 48 73 97 83 107 9 11 17 25 17 30 0 6 4 6 8 -1 6 -9 16 -2 35
25 15 20 70 96 123 167 52 72 107 147 122 168 15 21 36 51 48 65 76 97 215
285 225 304 6 13 27 42 45 65 19 23 34 44 34 47 0 5 106 146 206 274 27 35 60
80 73 100 13 21 36 51 50 68 14 16 37 45 51 63 14 18 53 70 87 115 35 44 102
134 149 198 47 64 92 122 100 129 8 6 14 15 14 20 0 5 6 17 14 26 84 102 203
256 256 329 25 34 97 129 160 210 63 82 124 160 135 175 11 15 61 79 110 144
113 148 196 258 557 746 26 35 88 118 138 184 51 66 100 131 110 145 10 14 53
70 95 125 42 55 84 111 93 125 9 14 63 88 120 165 57 77 114 156 128 175 85
122 271 372 334 451 42 52 87 110 100 129 13 19 45 60 70 91 25 31 70 91 100
134 30 43 60 83 66 89 34 36 169 227 200 284 43 77 75 115 124 145 19 11 81
65 137 118 118 113 191 172 245 200 l38 20 8 -22 c8 -20 11 -18 57 30 78 81
84 59 8 -26 -61 -68 -258 -328 -378 -499 -22 -32 -80 -113 -130 -181 -49 -67
-115 -158 -147 -200 -88 -121 -225 -302 -268 -354 -22 -26 -40 -52 -40 -57 0
-6 -9 -17 -19 -24 -19 -13 -68 -76 -186 -235 -27 -38 -54 -73 -60 -80 -5 -7
-33 -43 -62 -80 -29 -37 -98 -127 -155 -199 -57 -71 -122 -155 -145 -185 -23
-30 -77 -99 -121 -154 -85 -109 -242 -314 -336 -440 -134 -180 -183 -247 -223
-302 -82 -114 -176 -238 -194 -258 -10 -11 -48 -60 -84 -110 -36 -49 -85 -114
-108 -144 -23 -30 -69 -91 -102 -136 -33 -45 -106 -144 -163 -219 -57 -75
-118 -156 -135 -180 -18 -24 -47 -63 -64 -87 -18 -24 -58 -78 -88 -119 -30
-41 -65 -86 -78 -100 -21 -23 -62 -77 -112 -146 -11 -15 -27 -35 -36 -43 -9
-9 -38 -47 -65 -86 -26 -38 -56 -76 -66 -83 -10 -7 -18 -20 -18 -28 0 -8 -3
-14 -7 -14 -5 0 -19 -17 -33 -38 -31 -46 -78 -108 -108 -142 -12 -13 -22 -27
-22 -30 0 -4 -16 -23 -35 -44 -19 -21 -35 -45 -35 -52 0 -8 -4 -14 -8 -14 -4
0 -15 -12 -25 -28 -9 -15 -31 -43 -49 -64 -18 -20 -58 -71 -88 -113 -30 -43
-60 -83 -65 -89 -6 -6 -28 -36 -50 -66 -22 -30 -46 -61 -53 -69 -7 -8 -41 -55
-74 -105 -34 -50 -67 -98 -75 -106 -18 -21 -74 -91 -95 -121 -77 -106 -159
-217 -172 -231 -9 -10 -16 -22 -16 -27 0 -5 -10 -18 -23 -28 -12 -10 -34 -36
-47 -58 -13 -22 -37 -56 -52 -75 -15 -19 -112 -147 -214 -285 -103 -137 -190
-252 -194 -255 -3 -3 -22 -27 -41 -55 -43 -62 -38 -56 -156 -205 -55 -69 -108
-138 -119 -155 -10 -16 -30 -43 -44 -58 -14 -15 -33 -37 -42 -48 -10 -10 -18
-23 -18 -28 0 -5 -3 -11 -7 -13 -5 -2 -24 -20 -42 -41 l-35 -37 3372 0 3372 0
0 80 0 80 320 0 320 0 0 -80 0 -80 80 0 80 0 0 5120 0 5120 -5120 0 -5120 0 0
-5120z m8314 2355 c-4 -8 -11 -15 -16 -15 -6 0 -5 6 2 15 7 8 14 15 16 15 2 0
1 -7 -2 -15z"/>
<path d="M7795 7040 c-10 -11 -16 -22 -14 -24 2 -2 12 7 22 20 22 29 17 32 -8
4z"/>
</g>
</svg>
